<svg width="260" height="160" viewBox="0 0 260 160" fill="none" xmlns="http://www.w3.org/2000/svg">
<rect width="260" height="160" rx="20" fill="white"/>
<g clip-path="url(#clip0_1274_6662)">
<path fill-rule="evenodd" clip-rule="evenodd" d="M217.631 72.9438L217.364 73.6817C217.096 74.4196 216.888 74.8501 216.621 75.465C216.442 75.8339 216.264 76.2644 215.997 76.91L210.409 91.3604C209.428 93.9431 207.467 95.3881 205.059 95.3881C204.227 95.3881 203.246 95.1114 202.682 94.8962L202.177 94.681L202.414 94.1583C203.187 92.4365 203.692 91.8831 205.327 91.7294C205.951 91.6679 206.605 90.93 207.08 89.7617L207.318 89.1775L202.236 76.91C201.968 76.2644 201.76 75.7417 201.552 75.2498C201.344 74.7886 201.166 74.2967 200.928 73.7125L200.601 72.9438H203.098C204.554 72.9438 205.178 73.405 205.743 74.8808C205.743 74.8808 208.537 82.0753 208.745 82.598C208.953 83.1206 209.191 84.3812 209.191 84.3812H209.309C209.309 84.3812 209.488 83.2436 209.696 82.598C209.904 81.9523 212.4 74.8808 212.4 74.8808C212.906 73.4358 213.619 72.9438 215.105 72.9438H217.631Z" fill="#E51A4B"/>
<path fill-rule="evenodd" clip-rule="evenodd" d="M186.395 72.7288C184.701 72.7288 182.591 74.2353 182.145 76.1723C182.145 76.1415 182.145 75.2192 182.145 75.0039C182.145 73.9893 181.55 72.8825 179.678 72.8825H178.281V89.7003H182.234V82.7826C182.234 81.7372 182.323 80.8763 182.561 80.1077C183.155 78.1092 184.612 76.8179 186.276 76.8179C186.692 76.8179 187.019 76.8794 187.019 76.8794L187.673 77.0331V72.8825L187.227 72.821C187.227 72.821 186.811 72.7288 186.395 72.7288Z" fill="#E51A4B"/>
<path fill-rule="evenodd" clip-rule="evenodd" d="M197.837 72.7288C196.143 72.7288 194.063 74.2353 193.587 76.1723C193.587 76.1415 193.587 75.2192 193.587 75.0039C193.587 73.9893 192.993 72.8825 191.121 72.8825H189.724V89.7003H193.706V82.7826C193.706 81.7372 193.825 80.8763 194.033 80.1077C194.628 78.1092 196.084 76.8179 197.748 76.8179C198.164 76.8179 198.491 76.8794 198.491 76.8794L199.145 77.0331V72.8825L198.699 72.821C198.699 72.821 198.283 72.7288 197.837 72.7288Z" fill="#E51A4B"/>
<path fill-rule="evenodd" clip-rule="evenodd" d="M114.857 73.1284C109.923 73.1284 106.238 76.8794 106.238 81.8909C106.238 86.9024 109.953 90.7149 114.857 90.7149C119.731 90.7149 123.535 86.8409 123.535 81.8909C123.506 76.8794 119.791 73.1284 114.857 73.1284ZM114.857 86.9947C112.212 86.9947 110.221 84.8117 110.221 81.8909C110.221 79.0008 112.212 76.8486 114.857 76.8486C117.502 76.8486 119.523 79.0316 119.523 81.8909C119.493 84.781 117.502 86.9947 114.857 86.9947Z" fill="#E51A4B"/>
<path fill-rule="evenodd" clip-rule="evenodd" d="M96.9354 73.1283C94.7064 73.1283 93.1609 74.0814 92.2693 74.8808H92.1504C92.1504 74.8808 92.2693 73.9584 92.2693 73.036C92.2693 72.0829 92.2693 69.8385 92.2693 69.8385C92.2693 68.1168 91.4668 67.2866 89.8322 67.2866H88.3164V82.0138C88.5245 87.3635 91.7046 90.684 96.6977 90.684C101.275 90.684 104.722 86.9023 104.722 81.8908C104.752 76.91 101.394 73.1283 96.9354 73.1283ZM96.2816 87.0253C93.7553 87.0253 92.1207 84.4734 92.1207 81.983C92.1207 78.232 94.4389 76.8792 96.341 76.8792C98.5106 76.8792 100.769 78.7855 100.769 81.9523C100.769 85.1191 98.4809 87.0253 96.2816 87.0253Z" fill="#E51A4B"/>
<path fill-rule="evenodd" clip-rule="evenodd" d="M150.314 73.1283C148.085 73.1283 146.539 74.0814 145.648 74.8808H145.559C145.559 74.8808 145.677 73.9584 145.677 73.036C145.677 72.0829 145.677 69.8385 145.677 69.8385C145.677 68.1168 144.875 67.2866 143.24 67.2866H141.725V82.0138C141.933 87.3635 145.113 90.684 150.076 90.684C154.653 90.684 158.101 86.9023 158.101 81.8908C158.101 76.91 154.772 73.1283 150.314 73.1283ZM149.66 87.0253C147.134 87.0253 145.499 84.4734 145.499 81.983C145.499 78.232 147.817 76.8792 149.719 76.8792C151.889 76.8792 154.148 78.7855 154.148 81.9523C154.148 85.1191 151.859 87.0253 149.66 87.0253Z" fill="#E51A4B"/>
<path fill-rule="evenodd" clip-rule="evenodd" d="M137.385 86.6256L134.176 81.3374L136.91 77.0945C137.415 76.3259 137.801 75.7725 138.218 75.1883C138.515 74.7579 138.812 74.3274 139.169 73.8355L139.733 72.9746H136.761C135.097 72.9746 134.473 73.3436 133.581 74.8808C133.581 74.8808 132.392 76.9408 132.214 77.2482C132.065 77.525 131.649 78.5088 131.62 78.5088H131.501C131.501 78.5088 131.114 77.6172 130.906 77.2482C130.698 76.8486 129.509 74.8808 129.509 74.8808C128.558 73.3436 127.934 72.9746 126.329 72.9746H123.357L123.952 73.8355C124.665 74.8808 125.081 75.4957 125.705 76.4489L128.885 81.3682L126.181 86.0107C125.675 86.7794 125.289 87.3328 124.873 87.917C124.576 88.3474 124.279 88.7778 123.922 89.2698L123.357 90.1306H126.329C127.994 90.1306 128.618 89.7617 129.539 88.2244C129.539 88.2244 130.728 86.1645 130.906 85.857C131.055 85.5803 131.471 84.5964 131.501 84.5964H131.62C131.62 84.5964 131.976 85.4881 132.214 85.857C132.452 86.226 133.611 88.2244 133.611 88.2244C134.562 89.7617 135.186 90.1306 136.791 90.1306H139.763L139.169 89.2698C138.426 88.1937 138.009 87.5788 137.385 86.6256Z" fill="#E51A4B"/>
<path fill-rule="evenodd" clip-rule="evenodd" d="M173.169 85.5188C172.723 85.5188 172.307 85.7033 171.891 85.9185L171.832 85.9492C171 86.3489 169.989 86.8408 168.771 86.8408C166.72 86.8408 164.045 85.5188 163.807 82.6287C163.807 82.6287 175.042 82.6287 175.161 82.6287C175.22 82.0753 175.279 81.2759 175.279 80.8455C175.279 76.1106 172.278 72.9438 167.79 72.9438C163.034 72.9438 159.676 76.5718 159.676 81.7371C159.676 86.8408 163.629 90.5303 168.592 90.5303C172.605 90.5303 174.863 87.9784 174.952 87.8862L175.22 87.6095L175.071 87.2405C174.744 86.4412 174.209 85.5188 173.169 85.5188ZM168.087 76.1414C169.781 76.1414 171.535 77.2175 171.535 79.4927H163.837C164.104 77.7402 165.828 76.1414 168.087 76.1414Z" fill="#E51A4B"/>
<path fill-rule="evenodd" clip-rule="evenodd" d="M57.6149 92.1599C59.3387 90.3767 62.1324 90.3767 63.8265 92.1599C65.5503 93.9432 65.5503 96.864 63.8265 98.6473C62.1027 100.431 59.3387 100.431 57.6149 98.6473C55.8911 96.864 55.8911 93.9739 57.6149 92.1599Z" fill="#E51A4B"/>
<path fill-rule="evenodd" clip-rule="evenodd" d="M65.0155 84.4734C63.2917 86.2567 63.2917 89.1775 65.0155 90.9607C66.7393 92.744 69.5331 92.744 71.2271 90.9607C72.9509 89.1775 72.9509 86.2567 71.2271 84.4734C69.5033 82.6902 66.7393 82.6902 65.0155 84.4734Z" fill="#E51A4B"/>
<path fill-rule="evenodd" clip-rule="evenodd" d="M72.4159 76.7564C70.6921 78.5396 70.6921 81.4605 72.4159 83.2437C74.1397 85.0577 76.9334 85.0577 78.6275 83.2437C80.3513 81.4605 80.3513 78.5396 78.6275 76.7564C76.9037 74.9731 74.11 74.9731 72.4159 76.7564Z" fill="#E51A4B"/>
<path fill-rule="evenodd" clip-rule="evenodd" d="M50.2145 84.4734C48.4907 86.2567 48.4907 89.1775 50.2145 90.9607C51.9383 92.744 54.732 92.744 56.4261 90.9607C58.1499 89.1775 58.1499 86.2567 56.4261 84.4734C54.732 82.6902 51.9383 82.6902 50.2145 84.4734Z" fill="#E51A4B"/>
<path fill-rule="evenodd" clip-rule="evenodd" d="M42.8138 76.7564C41.09 78.5396 41.09 81.4605 42.8138 83.2437C44.5376 85.0577 47.3314 85.0577 49.0255 83.2437C50.7493 81.4605 50.7493 78.5704 49.0255 76.7564C47.3314 74.9731 44.5376 74.9731 42.8138 76.7564Z" fill="#E51A4B"/>
<path fill-rule="evenodd" clip-rule="evenodd" d="M57.6149 76.7564C55.8911 78.5396 55.8911 81.4605 57.6149 83.2437C59.3387 85.0577 62.1324 85.0577 63.8562 83.2437C65.58 81.4605 65.58 78.5396 63.8562 76.7564C62.1027 74.9731 59.3387 74.9731 57.6149 76.7564Z" fill="#E51A4B"/>
<path fill-rule="evenodd" clip-rule="evenodd" d="M50.2145 69.0391C48.4907 70.8223 48.4907 73.7432 50.2145 75.5264C51.9383 77.3097 54.732 77.3097 56.4261 75.5264C58.1499 73.7432 58.1499 70.8223 56.4261 69.0391C54.732 67.2558 51.9383 67.2558 50.2145 69.0391Z" fill="#E51A4B"/>
<path fill-rule="evenodd" clip-rule="evenodd" d="M65.0155 69.0391C63.2917 70.8223 63.2917 73.7432 65.0155 75.5264C66.7393 77.3097 69.5331 77.3097 71.2271 75.5264C72.9509 73.7432 72.9509 70.8223 71.2271 69.0391C69.5033 67.2558 66.7393 67.2558 65.0155 69.0391Z" fill="#E51A4B"/>
<path fill-rule="evenodd" clip-rule="evenodd" d="M57.6149 61.3528C59.3387 59.5696 62.1324 59.5696 63.8562 61.3528C65.58 63.1361 65.58 66.0569 63.8562 67.8401C62.1324 69.6234 59.3387 69.6234 57.6149 67.8401C55.8911 66.0261 55.8911 63.1361 57.6149 61.3528Z" fill="#B0CB1F"/>
</g>
<defs>
<clipPath id="clip0_1274_6662">
<rect x="41.5361" y="60" width="176.927" height="40" fill="white"/>
</clipPath>
</defs>
</svg>
