<svg width="300" height="160" viewBox="0 0 300 160" fill="none" xmlns="http://www.w3.org/2000/svg">
<rect width="300" height="160" rx="20" fill="white"/>
<g clip-path="url(#clip0_1274_7792)">
<path fill-rule="evenodd" clip-rule="evenodd" d="M237.632 72.9438L237.364 73.6817C237.097 74.4196 236.889 74.8501 236.621 75.465C236.443 75.8339 236.264 76.2644 235.997 76.91L230.409 91.3604C229.429 93.9431 227.467 95.3881 225.06 95.3881C224.227 95.3881 223.247 95.1114 222.682 94.8962L222.177 94.681L222.415 94.1583C223.187 92.4365 223.693 91.8831 225.327 91.7294C225.951 91.6679 226.605 90.93 227.081 89.7617L227.318 89.1775L222.236 76.91C221.969 76.2644 221.761 75.7417 221.553 75.2498C221.345 74.7886 221.166 74.2967 220.928 73.7125L220.602 72.9438H223.098C224.554 72.9438 225.179 73.405 225.743 74.8808C225.743 74.8808 228.537 82.0753 228.745 82.598C228.953 83.1206 229.191 84.3812 229.191 84.3812H229.31C229.31 84.3812 229.488 83.2436 229.696 82.598C229.904 81.9523 232.401 74.8808 232.401 74.8808C232.906 73.4358 233.619 72.9438 235.105 72.9438H237.632Z" fill="#E51A4B"/>
<path fill-rule="evenodd" clip-rule="evenodd" d="M206.395 72.7288C204.701 72.7288 202.591 74.2353 202.145 76.1723C202.145 76.1415 202.145 75.2192 202.145 75.0039C202.145 73.9893 201.551 72.8825 199.678 72.8825H198.281V89.7003H202.234V82.7826C202.234 81.7372 202.323 80.8763 202.561 80.1077C203.155 78.1092 204.612 76.8179 206.276 76.8179C206.692 76.8179 207.019 76.8794 207.019 76.8794L207.673 77.0331V72.8825L207.227 72.821C207.227 72.821 206.811 72.7288 206.395 72.7288Z" fill="#E51A4B"/>
<path fill-rule="evenodd" clip-rule="evenodd" d="M217.837 72.7288C216.143 72.7288 214.063 74.2353 213.587 76.1723C213.587 76.1415 213.587 75.2192 213.587 75.0039C213.587 73.9893 212.993 72.8825 211.121 72.8825H209.724V89.7003H213.706V82.7826C213.706 81.7372 213.825 80.8763 214.033 80.1077C214.628 78.1092 216.084 76.8179 217.748 76.8179C218.164 76.8179 218.491 76.8794 218.491 76.8794L219.145 77.0331V72.8825L218.699 72.821C218.699 72.821 218.283 72.7288 217.837 72.7288Z" fill="#E51A4B"/>
<path fill-rule="evenodd" clip-rule="evenodd" d="M134.857 73.1284C129.924 73.1284 126.238 76.8794 126.238 81.8909C126.238 86.9024 129.953 90.7149 134.857 90.7149C139.731 90.7149 143.536 86.8409 143.536 81.8909C143.506 76.8794 139.791 73.1284 134.857 73.1284ZM134.857 86.9947C132.212 86.9947 130.221 84.8117 130.221 81.8909C130.221 79.0008 132.212 76.8486 134.857 76.8486C137.502 76.8486 139.523 79.0316 139.523 81.8909C139.494 84.781 137.502 86.9947 134.857 86.9947Z" fill="#E51A4B"/>
<path fill-rule="evenodd" clip-rule="evenodd" d="M116.936 73.1283C114.706 73.1283 113.161 74.0814 112.269 74.8808H112.151C112.151 74.8808 112.269 73.9584 112.269 73.036C112.269 72.0829 112.269 69.8385 112.269 69.8385C112.269 68.1168 111.467 67.2866 109.832 67.2866H108.317V82.0138C108.525 87.3635 111.705 90.684 116.698 90.684C121.275 90.684 124.722 86.9023 124.722 81.8908C124.752 76.91 121.394 73.1283 116.936 73.1283ZM116.282 87.0253C113.755 87.0253 112.121 84.4734 112.121 81.983C112.121 78.232 114.439 76.8792 116.341 76.8792C118.511 76.8792 120.77 78.7855 120.77 81.9523C120.77 85.1191 118.481 87.0253 116.282 87.0253Z" fill="#E51A4B"/>
<path fill-rule="evenodd" clip-rule="evenodd" d="M170.314 73.1283C168.085 73.1283 166.539 74.0814 165.648 74.8808H165.559C165.559 74.8808 165.678 73.9584 165.678 73.036C165.678 72.0829 165.678 69.8385 165.678 69.8385C165.678 68.1168 164.875 67.2866 163.24 67.2866H161.725V82.0138C161.933 87.3635 165.113 90.684 170.076 90.684C174.653 90.684 178.101 86.9023 178.101 81.8908C178.101 76.91 174.772 73.1283 170.314 73.1283ZM169.66 87.0253C167.134 87.0253 165.499 84.4734 165.499 81.983C165.499 78.232 167.817 76.8792 169.72 76.8792C171.889 76.8792 174.148 78.7855 174.148 81.9523C174.148 85.1191 171.859 87.0253 169.66 87.0253Z" fill="#E51A4B"/>
<path fill-rule="evenodd" clip-rule="evenodd" d="M157.385 86.6256L154.176 81.3374L156.91 77.0945C157.415 76.3259 157.802 75.7725 158.218 75.1883C158.515 74.7579 158.812 74.3274 159.169 73.8355L159.733 72.9746H156.761C155.097 72.9746 154.473 73.3436 153.581 74.8808C153.581 74.8808 152.392 76.9408 152.214 77.2482C152.065 77.525 151.649 78.5088 151.62 78.5088H151.501C151.501 78.5088 151.114 77.6172 150.906 77.2482C150.698 76.8486 149.509 74.8808 149.509 74.8808C148.558 73.3436 147.934 72.9746 146.329 72.9746H143.357L143.952 73.8355C144.665 74.8808 145.081 75.4957 145.705 76.4489L148.885 81.3682L146.181 86.0107C145.676 86.7794 145.289 87.3328 144.873 87.917C144.576 88.3474 144.279 88.7778 143.922 89.2698L143.357 90.1306H146.329C147.994 90.1306 148.618 89.7617 149.539 88.2244C149.539 88.2244 150.728 86.1645 150.906 85.857C151.055 85.5803 151.471 84.5964 151.501 84.5964H151.62C151.62 84.5964 151.976 85.4881 152.214 85.857C152.452 86.226 153.611 88.2244 153.611 88.2244C154.562 89.7617 155.186 90.1306 156.791 90.1306H159.763L159.169 89.2698C158.426 88.1937 158.01 87.5788 157.385 86.6256Z" fill="#E51A4B"/>
<path fill-rule="evenodd" clip-rule="evenodd" d="M193.169 85.5188C192.723 85.5188 192.307 85.7033 191.891 85.9185L191.832 85.9492C191 86.3489 189.989 86.8408 188.771 86.8408C186.72 86.8408 184.045 85.5188 183.807 82.6287C183.807 82.6287 195.042 82.6287 195.161 82.6287C195.22 82.0753 195.279 81.2759 195.279 80.8455C195.279 76.1106 192.278 72.9438 187.79 72.9438C183.034 72.9438 179.676 76.5718 179.676 81.7371C179.676 86.8408 183.629 90.5303 188.592 90.5303C192.605 90.5303 194.863 87.9784 194.952 87.8862L195.22 87.6095L195.071 87.2405C194.744 86.4412 194.209 85.5188 193.169 85.5188ZM188.087 76.1414C189.781 76.1414 191.535 77.2175 191.535 79.4927H183.837C184.104 77.7402 185.828 76.1414 188.087 76.1414Z" fill="#E51A4B"/>
<path fill-rule="evenodd" clip-rule="evenodd" d="M77.6151 92.1599C79.3389 90.3767 82.1327 90.3767 83.8267 92.1599C85.5506 93.9432 85.5506 96.864 83.8267 98.6473C82.1029 100.431 79.3389 100.431 77.6151 98.6473C75.8913 96.864 75.8913 93.9739 77.6151 92.1599Z" fill="#E51A4B"/>
<path fill-rule="evenodd" clip-rule="evenodd" d="M85.0155 84.4734C83.2917 86.2567 83.2917 89.1775 85.0155 90.9607C86.7393 92.744 89.5331 92.744 91.2271 90.9607C92.9509 89.1775 92.9509 86.2567 91.2271 84.4734C89.5033 82.6902 86.7393 82.6902 85.0155 84.4734Z" fill="#E51A4B"/>
<path fill-rule="evenodd" clip-rule="evenodd" d="M92.416 76.7564C90.6922 78.5396 90.6922 81.4605 92.416 83.2437C94.1398 85.0577 96.9336 85.0577 98.6277 83.2437C100.351 81.4605 100.351 78.5396 98.6277 76.7564C96.9039 74.9731 94.1101 74.9731 92.416 76.7564Z" fill="#E51A4B"/>
<path fill-rule="evenodd" clip-rule="evenodd" d="M70.2146 84.4734C68.4908 86.2567 68.4908 89.1775 70.2146 90.9607C71.9384 92.744 74.7322 92.744 76.4262 90.9607C78.15 89.1775 78.15 86.2567 76.4262 84.4734C74.7322 82.6902 71.9384 82.6902 70.2146 84.4734Z" fill="#E51A4B"/>
<path fill-rule="evenodd" clip-rule="evenodd" d="M62.814 76.7564C61.0902 78.5396 61.0902 81.4605 62.814 83.2437C64.5378 85.0577 67.3315 85.0577 69.0256 83.2437C70.7494 81.4605 70.7494 78.5704 69.0256 76.7564C67.3315 74.9731 64.5378 74.9731 62.814 76.7564Z" fill="#E51A4B"/>
<path fill-rule="evenodd" clip-rule="evenodd" d="M77.6151 76.7564C75.8913 78.5396 75.8913 81.4605 77.6151 83.2437C79.3389 85.0577 82.1327 85.0577 83.8565 83.2437C85.5803 81.4605 85.5803 78.5396 83.8565 76.7564C82.1029 74.9731 79.3389 74.9731 77.6151 76.7564Z" fill="#E51A4B"/>
<path fill-rule="evenodd" clip-rule="evenodd" d="M70.2146 69.0391C68.4908 70.8223 68.4908 73.7432 70.2146 75.5264C71.9384 77.3097 74.7322 77.3097 76.4262 75.5264C78.15 73.7432 78.15 70.8223 76.4262 69.0391C74.7322 67.2558 71.9384 67.2558 70.2146 69.0391Z" fill="#E51A4B"/>
<path fill-rule="evenodd" clip-rule="evenodd" d="M85.0155 69.0391C83.2917 70.8223 83.2917 73.7432 85.0155 75.5264C86.7393 77.3097 89.5331 77.3097 91.2271 75.5264C92.9509 73.7432 92.9509 70.8223 91.2271 69.0391C89.5033 67.2558 86.7393 67.2558 85.0155 69.0391Z" fill="#E51A4B"/>
<path fill-rule="evenodd" clip-rule="evenodd" d="M77.6151 61.3528C79.3389 59.5696 82.1327 59.5696 83.8565 61.3528C85.5803 63.1361 85.5803 66.0569 83.8565 67.8401C82.1327 69.6234 79.3389 69.6234 77.6151 67.8401C75.8913 66.0261 75.8913 63.1361 77.6151 61.3528Z" fill="#B0CB1F"/>
</g>
<defs>
<clipPath id="clip0_1274_7792">
<rect width="176.927" height="40" fill="white" transform="translate(61.5361 60)"/>
</clipPath>
</defs>
</svg>
