<svg width="300" height="100" viewBox="0 0 300 100" fill="none" xmlns="http://www.w3.org/2000/svg">
<rect width="300" height="100" rx="10" fill="white"/>
<g clip-path="url(#clip0_1274_8696)">
<path fill-rule="evenodd" clip-rule="evenodd" d="M215.724 44.7078L215.523 45.2612C215.323 45.8146 215.167 46.1374 214.966 46.5986C214.832 46.8753 214.698 47.1982 214.498 47.6824L210.307 58.5202C209.572 60.4572 208.1 61.541 206.295 61.541C205.671 61.541 204.935 61.3334 204.512 61.172L204.133 61.0106L204.311 60.6186C204.891 59.3273 205.27 58.9122 206.496 58.7969C206.964 58.7508 207.454 58.1974 207.811 57.3211L207.989 56.883L204.177 47.6824C203.977 47.1982 203.821 46.8061 203.665 46.4372C203.509 46.0913 203.375 45.7224 203.197 45.2842L202.951 44.7078H204.824C205.916 44.7078 206.384 45.0537 206.808 46.1605C206.808 46.1605 208.903 51.5563 209.059 51.9483C209.215 52.3404 209.393 53.2858 209.393 53.2858H209.482C209.482 53.2858 209.616 52.4326 209.772 51.9483C209.928 51.4641 211.801 46.1605 211.801 46.1605C212.18 45.0767 212.715 44.7078 213.829 44.7078H215.724Z" fill="#E51A4B"/>
<path fill-rule="evenodd" clip-rule="evenodd" d="M192.296 44.5464C191.026 44.5464 189.443 45.6763 189.109 47.129C189.109 47.106 189.109 46.4142 189.109 46.2528C189.109 45.4918 188.663 44.6617 187.259 44.6617H186.211V57.2751H189.176V52.0867C189.176 51.3027 189.243 50.6571 189.421 50.0806C189.867 48.5817 190.959 47.6133 192.207 47.6133C192.519 47.6133 192.765 47.6594 192.765 47.6594L193.255 47.7747V44.6617L192.921 44.6156C192.921 44.6156 192.609 44.5464 192.296 44.5464Z" fill="#E51A4B"/>
<path fill-rule="evenodd" clip-rule="evenodd" d="M200.878 44.5464C199.608 44.5464 198.047 45.6763 197.691 47.129C197.691 47.106 197.691 46.4142 197.691 46.2528C197.691 45.4918 197.245 44.6617 195.841 44.6617H194.793V57.2751H197.78V52.0867C197.78 51.3027 197.869 50.6571 198.025 50.0806C198.471 48.5817 199.563 47.6133 200.811 47.6133C201.123 47.6133 201.369 47.6594 201.369 47.6594L201.859 47.7747V44.6617L201.525 44.6156C201.525 44.6156 201.213 44.5464 200.878 44.5464Z" fill="#E51A4B"/>
<path fill-rule="evenodd" clip-rule="evenodd" d="M138.643 44.8462C134.943 44.8462 132.179 47.6594 132.179 51.4181C132.179 55.1767 134.965 58.036 138.643 58.036C142.299 58.036 145.152 55.1306 145.152 51.4181C145.13 47.6594 142.343 44.8462 138.643 44.8462ZM138.643 55.2459C136.659 55.2459 135.166 53.6087 135.166 51.4181C135.166 49.2505 136.659 47.6364 138.643 47.6364C140.627 47.6364 142.143 49.2736 142.143 51.4181C142.12 53.5856 140.627 55.2459 138.643 55.2459Z" fill="#E51A4B"/>
<path fill-rule="evenodd" clip-rule="evenodd" d="M125.202 44.8463C123.53 44.8463 122.371 45.5612 121.702 46.1607H121.613C121.613 46.1607 121.702 45.4689 121.702 44.7772C121.702 44.0623 121.702 42.379 121.702 42.379C121.702 41.0877 121.1 40.4651 119.874 40.4651H118.738V51.5104C118.894 55.5227 121.279 58.0131 125.024 58.0131C128.456 58.0131 131.042 55.1768 131.042 51.4182C131.064 47.6826 128.546 44.8463 125.202 44.8463ZM124.712 55.2691C122.817 55.2691 121.591 53.3552 121.591 51.4874C121.591 48.6742 123.33 47.6596 124.756 47.6596C126.383 47.6596 128.077 49.0892 128.077 51.4643C128.077 53.8394 126.361 55.2691 124.712 55.2691Z" fill="#E51A4B"/>
<path fill-rule="evenodd" clip-rule="evenodd" d="M165.236 44.8463C163.564 44.8463 162.405 45.5612 161.736 46.1607H161.669C161.669 46.1607 161.758 45.4689 161.758 44.7772C161.758 44.0623 161.758 42.379 161.758 42.379C161.758 41.0877 161.157 40.4651 159.931 40.4651H158.794V51.5104C158.95 55.5227 161.335 58.0131 165.057 58.0131C168.49 58.0131 171.076 55.1768 171.076 51.4182C171.076 47.6826 168.579 44.8463 165.236 44.8463ZM164.745 55.2691C162.851 55.2691 161.625 53.3552 161.625 51.4874C161.625 48.6742 163.363 47.6596 164.79 47.6596C166.417 47.6596 168.111 49.0892 168.111 51.4643C168.111 53.8394 166.395 55.2691 164.745 55.2691Z" fill="#E51A4B"/>
<path fill-rule="evenodd" clip-rule="evenodd" d="M155.539 54.9692L153.132 51.0031L155.183 47.8209C155.562 47.2444 155.851 46.8293 156.163 46.3912C156.386 46.0684 156.609 45.7456 156.877 45.3766L157.3 44.731H155.071C153.823 44.731 153.355 45.0077 152.686 46.1606C152.686 46.1606 151.795 47.7056 151.661 47.9362C151.549 48.1437 151.237 48.8816 151.215 48.8816H151.126C151.126 48.8816 150.836 48.2129 150.68 47.9362C150.524 47.6364 149.632 46.1606 149.632 46.1606C148.919 45.0077 148.451 44.731 147.247 44.731H145.018L145.464 45.3766C145.999 46.1606 146.311 46.6218 146.779 47.3366L149.164 51.0261L147.136 54.508C146.757 55.0845 146.467 55.4996 146.155 55.9377C145.932 56.2605 145.709 56.5834 145.442 56.9523L145.018 57.598H147.247C148.496 57.598 148.964 57.3213 149.655 56.1683C149.655 56.1683 150.546 54.6233 150.68 54.3928C150.791 54.1852 151.104 53.4473 151.126 53.4473H151.215C151.215 53.4473 151.482 54.116 151.661 54.3928C151.839 54.6695 152.708 56.1683 152.708 56.1683C153.422 57.3213 153.89 57.598 155.094 57.598H157.323L156.877 56.9523C156.319 56.1453 156.007 55.6841 155.539 54.9692Z" fill="#E51A4B"/>
<path fill-rule="evenodd" clip-rule="evenodd" d="M182.377 54.139C182.043 54.139 181.731 54.2773 181.419 54.4387L181.374 54.4618C180.75 54.7616 179.992 55.1305 179.078 55.1305C177.54 55.1305 175.534 54.139 175.356 51.9714C175.356 51.9714 183.781 51.9714 183.871 51.9714C183.915 51.5563 183.96 50.9568 183.96 50.634C183.96 47.0829 181.708 44.7078 178.343 44.7078C174.776 44.7078 172.257 47.4287 172.257 51.3027C172.257 55.1305 175.222 57.8976 178.944 57.8976C181.954 57.8976 183.648 55.9837 183.715 55.9145L183.915 55.707L183.804 55.4303C183.559 54.8307 183.157 54.139 182.377 54.139ZM178.565 47.1059C179.836 47.1059 181.151 47.913 181.151 49.6194H175.378C175.578 48.305 176.871 47.1059 178.565 47.1059Z" fill="#E51A4B"/>
<path fill-rule="evenodd" clip-rule="evenodd" d="M95.7115 59.1198C97.0044 57.7823 99.0997 57.7823 100.37 59.1198C101.663 60.4572 101.663 62.6478 100.37 63.9853C99.0774 65.3227 97.0044 65.3227 95.7115 63.9853C94.4187 62.6478 94.4187 60.4803 95.7115 59.1198Z" fill="#E51A4B"/>
<path fill-rule="evenodd" clip-rule="evenodd" d="M101.262 53.3551C99.969 54.6926 99.969 56.8832 101.262 58.2206C102.555 59.558 104.65 59.558 105.921 58.2206C107.213 56.8832 107.213 54.6926 105.921 53.3551C104.628 52.0177 102.555 52.0177 101.262 53.3551Z" fill="#E51A4B"/>
<path fill-rule="evenodd" clip-rule="evenodd" d="M106.812 47.5673C105.519 48.9047 105.519 51.0953 106.812 52.4328C108.105 53.7933 110.2 53.7933 111.471 52.4328C112.764 51.0953 112.764 48.9047 111.471 47.5673C110.178 46.2299 108.083 46.2299 106.812 47.5673Z" fill="#E51A4B"/>
<path fill-rule="evenodd" clip-rule="evenodd" d="M90.1612 53.3551C88.8683 54.6926 88.8683 56.8832 90.1612 58.2206C91.454 59.558 93.5493 59.558 94.8199 58.2206C96.1127 56.8832 96.1127 54.6926 94.8199 53.3551C93.5493 52.0177 91.454 52.0177 90.1612 53.3551Z" fill="#E51A4B"/>
<path fill-rule="evenodd" clip-rule="evenodd" d="M84.6107 47.5673C83.3178 48.9047 83.3178 51.0953 84.6107 52.4328C85.9035 53.7933 87.9989 53.7933 89.2694 52.4328C90.5623 51.0953 90.5623 48.9278 89.2694 47.5673C87.9989 46.2299 85.9035 46.2299 84.6107 47.5673Z" fill="#E51A4B"/>
<path fill-rule="evenodd" clip-rule="evenodd" d="M95.7115 47.5673C94.4187 48.9047 94.4187 51.0953 95.7115 52.4328C97.0044 53.7933 99.0997 53.7933 100.393 52.4328C101.685 51.0953 101.685 48.9047 100.393 47.5673C99.0774 46.2299 97.0044 46.2299 95.7115 47.5673Z" fill="#E51A4B"/>
<path fill-rule="evenodd" clip-rule="evenodd" d="M90.1612 41.7794C88.8683 43.1169 88.8683 45.3075 90.1612 46.6449C91.454 47.9824 93.5493 47.9824 94.8199 46.6449C96.1127 45.3075 96.1127 43.1169 94.8199 41.7794C93.5493 40.442 91.454 40.442 90.1612 41.7794Z" fill="#E51A4B"/>
<path fill-rule="evenodd" clip-rule="evenodd" d="M101.262 41.7794C99.969 43.1169 99.969 45.3075 101.262 46.6449C102.555 47.9824 104.65 47.9824 105.921 46.6449C107.213 45.3075 107.213 43.1169 105.921 41.7794C104.628 40.442 102.555 40.442 101.262 41.7794Z" fill="#E51A4B"/>
<path fill-rule="evenodd" clip-rule="evenodd" d="M95.7115 36.0145C97.0044 34.6771 99.0997 34.6771 100.393 36.0145C101.685 37.352 101.685 39.5426 100.393 40.88C99.0997 42.2175 97.0044 42.2175 95.7115 40.88C94.4187 39.5195 94.4187 37.352 95.7115 36.0145Z" fill="#B0CB1F"/>
</g>
<defs>
<clipPath id="clip0_1274_8696">
<rect width="132.696" height="30" fill="white" transform="translate(83.6523 35)"/>
</clipPath>
</defs>
</svg>
