<svg width="300" height="160" viewBox="0 0 300 160" fill="none" xmlns="http://www.w3.org/2000/svg">
<rect width="300" height="160" rx="20" fill="white"/>
<path d="M47.1895 94.3735V66.4767H62.148V94.3735H57.9433V70.5221H51.4114V94.3735H47.1895ZM73.5248 65.8502C71.0677 65.8502 69.1384 67.1748 67.7282 69.824C66.3267 72.491 65.6259 75.9994 65.6259 80.3311C65.6259 84.8061 66.3007 88.386 67.659 91.0263C69 93.6754 70.9466 95 73.5161 95C76.1375 95 78.188 93.6128 79.6587 90.8383C81.0603 88.1891 81.7697 84.6718 81.7697 80.2953C81.7697 75.9636 81.043 72.4732 79.5895 69.824C78.1361 67.1748 76.1116 65.8502 73.5248 65.8502ZM69.6316 80.3669C69.6316 77.3061 69.9603 74.818 70.6265 72.9027C71.2667 70.9785 72.2357 70.0119 73.5248 70.0119C74.9523 70.0119 75.9818 70.9964 76.622 72.9385C77.193 74.648 77.4785 77.1002 77.4785 80.2953C77.4785 83.3741 77.1498 85.898 76.4836 87.8759C75.8261 89.8449 74.8398 90.8294 73.5248 90.8294C72.253 90.8294 71.2927 89.8449 70.6265 87.8401C69.9046 85.4215 69.5686 82.8974 69.6316 80.3669ZM94.375 66.4767H98.597V94.3735H94.375V80.6354H90.5683C88.8587 80.6793 87.2015 80.0231 85.9571 78.8097C85.3354 78.2575 84.8393 77.57 84.5043 76.7964C84.1693 76.0228 84.0036 75.1822 84.0191 74.3347V66.4678H88.2065V73.7888C88.2065 74.5316 88.4141 75.1313 88.838 75.5788C89.4177 76.1695 90.2915 76.4648 91.4508 76.4648H94.375V66.4767ZM109.446 94.3735H105.25V70.6026H101.236V66.4857H113.495V70.6026H109.446V94.3735ZM116.748 66.4767H123.565C125.581 66.4767 127.164 66.9779 128.324 67.9803C129.777 69.2333 130.504 71.2023 130.504 73.9051L132.684 94.3735H128.462L127.13 80.4833H120.529L120.07 94.3735H115.857L116.739 66.4767H116.748ZM120.607 76.3932H126.654C126.455 74.2452 126.118 72.7595 125.642 71.9541C125.071 71.0233 124.119 70.5668 122.787 70.5668H120.762L120.607 76.3932ZM147.833 93.8813V65.9845H152.591C155.775 65.9845 158.068 67.4254 159.478 70.2983C160.418 72.2856 160.883 74.4768 160.836 76.6885C160.836 80.1521 160.283 82.7924 159.166 84.5913C158.189 86.1307 156.952 86.9093 155.446 86.9093C154.837 86.9005 154.236 86.7662 153.677 86.5142C153.118 86.2622 152.614 85.8975 152.193 85.4415V93.8813H147.833ZM152.159 69.7882V78.398C152.159 79.7405 152.358 80.7786 152.764 81.5125C153.145 82.2285 153.629 82.5865 154.192 82.5865C154.789 82.5865 155.299 82.1838 155.732 81.3693C156.164 80.5549 156.372 79.3914 156.372 77.8789C156.372 75.0865 156.043 73.028 155.368 71.7124C154.702 70.4057 153.777 69.7434 152.591 69.7434C152.448 69.7665 152.304 69.7815 152.159 69.7882ZM170.881 65.358C168.424 65.358 166.494 66.6826 165.084 69.3317C163.683 72.0078 162.982 75.5072 162.982 79.8389C162.982 84.3228 163.657 87.8938 165.024 90.534C166.356 93.1832 168.311 94.5078 170.881 94.5078C173.493 94.5078 175.535 93.1205 177.015 90.3461C178.416 87.6969 179.126 84.1796 179.126 79.8031C179.126 75.4714 178.399 71.9809 176.945 69.3317C175.492 66.6826 173.467 65.358 170.881 65.358ZM166.987 79.8747C166.987 76.8138 167.325 74.3258 167.982 72.4105C168.623 70.4863 169.583 69.5197 170.881 69.5197C172.308 69.5197 173.338 70.5042 173.978 72.4463C174.549 74.1557 174.834 76.608 174.834 79.8031C174.834 82.8819 174.506 85.4057 173.84 87.3837C173.173 89.3616 172.196 90.3461 170.881 90.3461C169.609 90.3461 168.649 89.3437 167.982 87.3479C167.261 84.9291 166.925 82.4051 166.987 79.8747ZM186.246 80.0269C186.246 82.9803 187.024 85.3968 188.599 87.2763C190.286 89.2721 192.648 90.2745 195.693 90.2745V94.7405C191.264 94.7405 187.786 93.3353 185.268 90.534C182.863 87.8669 181.661 84.3765 181.661 80.0626C181.661 75.6056 182.768 72.1062 184.991 69.5644C187.414 66.7631 190.961 65.358 195.624 65.358V69.8329C192.51 69.8329 190.13 70.8174 188.495 72.7864C186.99 74.5764 186.246 76.9928 186.246 80.0358V80.0269ZM202.641 80.0269C202.641 82.9803 203.419 85.3968 204.994 87.2763C206.672 89.2721 209.043 90.2745 212.088 90.2745V94.7405C207.658 94.7405 204.18 93.3353 201.663 90.534C199.258 87.8669 198.055 84.3765 198.055 80.0626C198.055 75.6056 199.163 72.1062 201.377 69.5644C203.808 66.7631 207.356 65.358 212.019 65.358V69.8329C208.904 69.8329 206.525 70.8174 204.89 72.7864C203.385 74.5764 202.641 76.9928 202.641 80.0358V80.0269ZM230.922 65L232.021 93.8813H227.73L227.021 74.9344L219.814 82.4075L219.848 93.8813H215.566V65.9845H219.848V76.2858L230.922 65ZM251.712 65L252.811 93.8813H248.52L247.802 74.9344L240.604 82.4075L240.638 93.8813H236.356V65.9845H240.638V76.2858L251.712 65Z" fill="#1937FF"/>
</svg>
