<svg width="260" height="160" viewBox="0 0 260 160" fill="none" xmlns="http://www.w3.org/2000/svg">
<rect width="260" height="160" rx="20" fill="white"/>
<path d="M27.1895 94.3735V66.4767H42.148V94.3735H37.9433V70.5221H31.4114V94.3735H27.1895ZM53.5248 65.8502C51.0677 65.8502 49.1384 67.1748 47.7282 69.824C46.3267 72.491 45.6259 75.9994 45.6259 80.3311C45.6259 84.8061 46.3007 88.386 47.659 91.0263C49 93.6754 50.9466 95 53.5161 95C56.1375 95 58.188 93.6128 59.6587 90.8383C61.0603 88.1891 61.7697 84.6718 61.7697 80.2953C61.7697 75.9636 61.043 72.4732 59.5895 69.824C58.1361 67.1748 56.1116 65.8502 53.5248 65.8502ZM49.6316 80.3669C49.6316 77.3061 49.9603 74.818 50.6265 72.9027C51.2667 70.9785 52.2357 70.0119 53.5248 70.0119C54.9523 70.0119 55.9818 70.9964 56.622 72.9385C57.193 74.648 57.4785 77.1002 57.4785 80.2953C57.4785 83.3741 57.1498 85.898 56.4836 87.8759C55.8261 89.8449 54.8398 90.8294 53.5248 90.8294C52.253 90.8294 51.2927 89.8449 50.6265 87.8401C49.9046 85.4215 49.5686 82.8974 49.6316 80.3669ZM74.375 66.4767H78.597V94.3735H74.375V80.6354H70.5683C68.8587 80.6793 67.2015 80.0231 65.9571 78.8097C65.3354 78.2575 64.8393 77.57 64.5043 76.7964C64.1693 76.0228 64.0036 75.1822 64.0191 74.3347V66.4678H68.2065V73.7888C68.2065 74.5316 68.4141 75.1313 68.838 75.5788C69.4177 76.1695 70.2915 76.4648 71.4508 76.4648H74.375V66.4767ZM89.446 94.3735H85.25V70.6026H81.2357V66.4857H93.4949V70.6026H89.446V94.3735ZM96.7479 66.4767H103.565C105.581 66.4767 107.164 66.9779 108.324 67.9803C109.777 69.2333 110.504 71.2023 110.504 73.9051L112.684 94.3735H108.462L107.13 80.4833H100.529L100.07 94.3735H95.8568L96.7393 66.4767H96.7479ZM100.607 76.3932H106.654C106.455 74.2452 106.118 72.7595 105.642 71.9541C105.071 71.0233 104.119 70.5668 102.787 70.5668H100.762L100.607 76.3932ZM127.833 93.8813V65.9845H132.591C135.775 65.9845 138.068 67.4254 139.478 70.2983C140.418 72.2856 140.883 74.4768 140.836 76.6885C140.836 80.1521 140.283 82.7924 139.166 84.5913C138.189 86.1307 136.952 86.9093 135.446 86.9093C134.837 86.9005 134.236 86.7662 133.677 86.5142C133.118 86.2622 132.614 85.8975 132.193 85.4415V93.8813H127.833ZM132.159 69.7882V78.398C132.159 79.7405 132.358 80.7786 132.764 81.5125C133.145 82.2285 133.629 82.5865 134.192 82.5865C134.789 82.5865 135.299 82.1838 135.732 81.3693C136.164 80.5549 136.372 79.3914 136.372 77.8789C136.372 75.0865 136.043 73.028 135.368 71.7124C134.702 70.4057 133.777 69.7434 132.591 69.7434C132.448 69.7665 132.304 69.7815 132.159 69.7882ZM150.881 65.358C148.424 65.358 146.494 66.6826 145.084 69.3317C143.683 72.0078 142.982 75.5072 142.982 79.8389C142.982 84.3228 143.657 87.8938 145.024 90.534C146.356 93.1832 148.311 94.5078 150.881 94.5078C153.493 94.5078 155.535 93.1205 157.015 90.3461C158.416 87.6969 159.126 84.1796 159.126 79.8031C159.126 75.4714 158.399 71.9809 156.945 69.3317C155.492 66.6826 153.467 65.358 150.881 65.358ZM146.987 79.8747C146.987 76.8138 147.325 74.3258 147.982 72.4105C148.623 70.4863 149.583 69.5197 150.881 69.5197C152.308 69.5197 153.338 70.5042 153.978 72.4463C154.549 74.1557 154.834 76.608 154.834 79.8031C154.834 82.8819 154.506 85.4057 153.84 87.3837C153.173 89.3616 152.196 90.3461 150.881 90.3461C149.609 90.3461 148.649 89.3437 147.982 87.3479C147.261 84.9291 146.925 82.4051 146.987 79.8747ZM166.246 80.0269C166.246 82.9803 167.024 85.3968 168.599 87.2763C170.286 89.2721 172.648 90.2745 175.693 90.2745V94.7405C171.264 94.7405 167.786 93.3353 165.268 90.534C162.863 87.8669 161.661 84.3765 161.661 80.0626C161.661 75.6056 162.768 72.1062 164.991 69.5644C167.414 66.7631 170.961 65.358 175.624 65.358V69.8329C172.51 69.8329 170.13 70.8174 168.495 72.7864C166.99 74.5764 166.246 76.9928 166.246 80.0358V80.0269ZM182.641 80.0269C182.641 82.9803 183.419 85.3968 184.994 87.2763C186.672 89.2721 189.043 90.2745 192.088 90.2745V94.7405C187.658 94.7405 184.18 93.3353 181.663 90.534C179.258 87.8669 178.055 84.3765 178.055 80.0626C178.055 75.6056 179.163 72.1062 181.377 69.5644C183.808 66.7631 187.356 65.358 192.019 65.358V69.8329C188.904 69.8329 186.525 70.8174 184.89 72.7864C183.385 74.5764 182.641 76.9928 182.641 80.0358V80.0269ZM210.922 65L212.021 93.8813H207.73L207.021 74.9344L199.814 82.4075L199.848 93.8813H195.566V65.9845H199.848V76.2858L210.922 65ZM231.712 65L232.811 93.8813H228.52L227.802 74.9344L220.604 82.4075L220.638 93.8813H216.356V65.9845H220.638V76.2858L231.712 65Z" fill="#1937FF"/>
</svg>
