<svg width="300" height="100" viewBox="0 0 300 100" fill="none" xmlns="http://www.w3.org/2000/svg">
<rect width="300" height="100" rx="10" fill="white"/>
<path d="M64.3242 61.9779V38.7306H76.7897V61.9779H73.2858V42.1017H67.8425V61.9779H64.3242ZM86.2703 38.2085C84.2228 38.2085 82.615 39.3124 81.4399 41.52C80.2719 43.7425 79.6879 46.6662 79.6879 50.276C79.6879 54.0051 80.2503 56.9884 81.3822 59.1885C82.4997 61.3962 84.1219 62.5 86.2631 62.5C88.4476 62.5 90.1563 61.344 91.3819 59.0319C92.5499 56.8243 93.1411 53.8932 93.1411 50.2461C93.1411 46.6363 92.5355 43.7276 91.3243 41.52C90.1131 39.3124 88.426 38.2085 86.2703 38.2085ZM83.026 50.3058C83.026 47.7551 83.3 45.6817 83.8551 44.0856C84.3886 42.4821 85.1961 41.6766 86.2703 41.6766C87.4599 41.6766 88.3179 42.497 88.8514 44.1155C89.3272 45.54 89.5651 47.5835 89.5651 50.2461C89.5651 52.8118 89.2912 54.915 88.736 56.5632C88.1881 58.2041 87.3662 59.0245 86.2703 59.0245C85.2105 59.0245 84.4102 58.2041 83.8551 56.5334C83.2535 54.5179 82.9735 52.4145 83.026 50.3058ZM103.646 38.7306H107.164V61.9779H103.646V50.5295H100.473C99.0486 50.566 97.6676 50.0193 96.6306 49.0081C96.1125 48.5479 95.6991 47.975 95.4199 47.3303C95.1407 46.6857 95.0027 45.9852 95.0156 45.2789V38.7232H98.5051V44.824C98.5051 45.443 98.6781 45.9427 99.0314 46.3156C99.5144 46.8079 100.243 47.054 101.209 47.054H103.646V38.7306ZM116.205 61.9779H112.708V42.1689H109.363V38.7381H119.579V42.1689H116.205V61.9779ZM122.29 38.7306H127.971C129.651 38.7306 130.97 39.1483 131.936 39.9836C133.147 41.0277 133.753 42.6686 133.753 44.9209L135.57 61.9779H132.051L130.941 50.4027H125.44L125.058 61.9779H121.547L122.282 38.7306H122.29ZM125.505 46.9943H130.545C130.379 45.2044 130.098 43.9663 129.701 43.295C129.225 42.5194 128.432 42.139 127.322 42.139H125.635L125.505 46.9943ZM148.194 61.5677V38.3204H152.159C154.812 38.3204 156.723 39.5212 157.898 41.9153C158.681 43.5713 159.069 45.3973 159.03 47.2405C159.03 50.1268 158.568 52.327 157.638 53.8261C156.824 55.1089 155.793 55.7578 154.538 55.7578C154.031 55.7504 153.529 55.6385 153.064 55.4285C152.598 55.2185 152.178 54.9146 151.827 54.5346V61.5677H148.194ZM151.799 41.4902V48.665C151.799 49.7837 151.964 50.6489 152.303 51.2604C152.621 51.8571 153.024 52.1554 153.493 52.1554C153.99 52.1554 154.416 51.8198 154.776 51.1411C155.137 50.4624 155.31 49.4928 155.31 48.2324C155.31 45.9054 155.036 44.19 154.473 43.0937C153.918 42.0048 153.147 41.4529 152.159 41.4529C152.04 41.4721 151.919 41.4846 151.799 41.4902ZM167.4 37.7983C165.353 37.7983 163.745 38.9021 162.57 41.1098C161.402 43.3398 160.818 46.256 160.818 49.8658C160.818 53.6023 161.38 56.5782 162.519 58.7783C163.63 60.986 165.259 62.0898 167.4 62.0898C169.578 62.0898 171.279 60.9338 172.512 58.6217C173.68 56.4141 174.271 53.483 174.271 49.8359C174.271 46.2261 173.665 43.3174 172.454 41.1098C171.243 38.9021 169.556 37.7983 167.4 37.7983ZM164.156 49.8956C164.156 47.3449 164.437 45.2715 164.985 43.6754C165.519 42.0719 166.319 41.2664 167.4 41.2664C168.59 41.2664 169.448 42.0868 169.981 43.7053C170.457 45.1298 170.695 47.1733 170.695 49.8359C170.695 52.4016 170.421 54.5048 169.866 56.153C169.311 57.8013 168.496 58.6217 167.4 58.6217C166.34 58.6217 165.54 57.7864 164.985 56.1232C164.384 54.1076 164.104 52.0042 164.156 49.8956ZM180.205 50.0224C180.205 52.4836 180.853 54.4973 182.166 56.0635C183.571 57.7267 185.54 58.5621 188.077 58.5621V62.2837C184.386 62.2837 181.488 61.1128 179.39 58.7783C177.386 56.5558 176.383 53.6471 176.383 50.0522C176.383 46.338 177.306 43.4218 179.159 41.3037C181.178 38.9693 184.134 37.7983 188.02 37.7983V41.5274C185.424 41.5274 183.442 42.3479 182.079 43.9887C180.825 45.4803 180.205 47.494 180.205 50.0298V50.0224ZM193.867 50.0224C193.867 52.4836 194.516 54.4973 195.828 56.0635C197.226 57.7267 199.202 58.5621 201.74 58.5621V62.2837C198.048 62.2837 195.15 61.1128 193.052 58.7783C191.048 56.5558 190.046 53.6471 190.046 50.0522C190.046 46.338 190.969 43.4218 192.814 41.3037C194.84 38.9693 197.796 37.7983 201.682 37.7983V41.5274C199.087 41.5274 197.104 42.3479 195.741 43.9887C194.487 45.4803 193.867 47.494 193.867 50.0298V50.0224ZM217.435 37.5L218.351 61.5677H214.775L214.184 45.7786L208.178 52.0063L208.207 61.5677H204.638V38.3204H208.207V46.9048L217.435 37.5ZM234.76 37.5L235.675 61.5677H232.099L231.501 45.7786L225.503 52.0063L225.531 61.5677H221.963V38.3204H225.531V46.9048L234.76 37.5Z" fill="#1937FF"/>
</svg>
