<svg width="300" height="100" viewBox="0 0 300 100" fill="none" xmlns="http://www.w3.org/2000/svg">
<rect width="300" height="100" rx="10" fill="white"/>
<g clip-path="url(#clip0_1274_8681)">
<path d="M101.456 33.4181L104.83 20.4363H110.42C112.037 20.4363 113.197 20.8363 113.9 21.6726C114.638 22.509 114.814 23.5999 114.462 24.9454C114.075 26.3999 113.267 27.5272 112.037 28.3272C110.806 29.1272 109.365 29.5272 107.783 29.5272H105.498L104.479 33.4181H101.456ZM106.131 27.0181H108.521C109.26 27.0181 109.892 26.8363 110.42 26.4726C110.947 26.109 111.263 25.6363 111.439 25.0181C111.615 24.3999 111.509 23.8908 111.158 23.5636C110.806 23.2363 110.279 23.0545 109.506 23.0545H107.186L106.131 27.0181Z" fill="#00833E"/>
<path d="M126.343 31.7092C124.621 33.0183 122.723 33.6728 120.649 33.6728C118.575 33.6728 117.028 33.0183 115.973 31.7092C114.954 30.4001 114.673 28.8364 115.165 26.9455C115.657 25.091 116.747 23.491 118.469 22.1819C120.192 20.8728 122.09 20.2183 124.164 20.2183C126.238 20.2183 127.784 20.8728 128.839 22.1819C129.858 23.491 130.14 25.0546 129.647 26.9455C129.155 28.8001 128.066 30.4001 126.343 31.7092ZM118.715 29.8546C119.278 30.6546 120.156 31.0546 121.387 31.0546C122.582 31.0546 123.672 30.6546 124.621 29.891C125.605 29.091 126.238 28.1455 126.519 26.9819C126.8 25.8546 126.66 24.8728 126.097 24.0728C125.535 23.2728 124.621 22.8728 123.426 22.8728C122.23 22.8728 121.141 23.2728 120.192 24.0364C119.207 24.8364 118.575 25.7819 118.293 26.9455C117.977 28.0728 118.118 29.0546 118.715 29.8546Z" fill="#00833E"/>
<path d="M129.753 33.4181L133.127 20.4363H135.904L140.228 28.4363L142.302 20.4363H145.255L141.88 33.4181H139.314L134.85 25.1636L132.706 33.4181H129.753Z" fill="#00833E"/>
<path d="M148.489 33.4181L149.824 28.2908L146.626 20.4363H150.141L152.039 25.6363L156.714 20.4363H160.124L152.847 28.2545L151.512 33.4181H148.489Z" fill="#00833E"/>
<path d="M96.9916 50.7272L100.366 37.7454H110.666L109.998 40.2908H102.651L101.983 42.909H108.416L107.748 45.4545H101.315L100.612 48.1817H108.029L107.361 50.7272H96.9916Z" fill="#00833E"/>
<path d="M108.451 50.7272L114.919 44.109L112.001 37.7454H115.517L117.274 41.9635L121.246 37.7454H124.656L118.434 44.0726L121.457 50.7272H117.942L116.044 46.2908L111.826 50.7272H108.451Z" fill="#00833E"/>
<path d="M123.144 50.7272L126.519 37.7454H132.108C133.725 37.7454 134.885 38.1454 135.623 38.9817C136.361 39.8181 136.537 40.909 136.186 42.2545C135.799 43.709 134.99 44.8363 133.76 45.6363C132.53 46.4363 131.089 46.8363 129.507 46.8363H127.222L126.203 50.7272H123.144ZM127.82 44.2908H130.21C130.948 44.2908 131.581 44.109 132.108 43.7454C132.635 43.3817 132.952 42.909 133.127 42.2908C133.303 41.6726 133.198 41.1635 132.846 40.8363C132.495 40.509 131.967 40.3272 131.194 40.3272H128.874L127.82 44.2908Z" fill="#00833E"/>
<path d="M135.588 50.7272L138.963 37.7454H145.184C146.907 37.7454 148.137 38.1817 148.805 39.0545C149.403 39.7817 149.508 40.7999 149.192 42.0726C148.664 44.0726 147.364 45.4181 145.22 46.109L147.364 50.7272H143.849L141.95 46.5817H139.63L138.541 50.7272H135.588ZM140.298 44.0726H143.356C144.095 44.0726 144.692 43.8908 145.184 43.5635C145.676 43.2363 145.993 42.7635 146.133 42.2181C146.274 41.5999 146.204 41.1635 145.852 40.8363C145.501 40.509 144.973 40.3635 144.235 40.3635H141.247L140.298 44.0726Z" fill="#00833E"/>
<path d="M149.121 50.7272L152.496 37.7454H162.795L162.127 40.2908H154.816L154.148 42.909H160.581L159.913 45.4545H153.48L152.777 48.1817H160.194L159.526 50.7272H149.121Z" fill="#00833E"/>
<path d="M166.416 50.9091C164.166 50.9091 162.444 50.2182 161.178 48.8364L163.463 46.8C164.518 47.8546 165.748 48.3637 167.119 48.3637C167.717 48.3637 168.244 48.2546 168.666 48.0364C169.087 47.8182 169.333 47.491 169.439 47.091C169.544 46.7273 169.439 46.4364 169.123 46.1819C168.806 45.9637 168.138 45.7091 167.119 45.4182C166.381 45.2364 165.818 45.0546 165.361 44.8728C164.94 44.691 164.518 44.4728 164.166 44.1455C163.815 43.8546 163.569 43.491 163.498 43.0182C163.428 42.5819 163.463 42.0364 163.604 41.3819C163.92 40.2182 164.588 39.2728 165.678 38.5455C166.767 37.8182 167.998 37.4546 169.404 37.4546C171.337 37.4546 172.884 38 174.044 39.091L171.935 41.2364C170.88 40.4 169.79 39.9637 168.736 39.9637C168.173 39.9637 167.717 40.0728 167.365 40.291C167.013 40.5091 166.767 40.8 166.697 41.1273C166.592 41.5637 166.697 41.8546 167.013 42.0728C167.33 42.291 168.068 42.5455 169.193 42.8364C170.564 43.2 171.548 43.6728 172.11 44.2546C172.673 44.8364 172.813 45.6728 172.532 46.7637C172.216 48.0364 171.478 49.0182 170.388 49.7091C169.228 50.5819 167.927 50.9091 166.416 50.9091Z" fill="#00833E"/>
<path d="M178.121 50.9091C175.872 50.9091 174.149 50.2182 172.884 48.8364L175.169 46.8C176.223 47.8546 177.453 48.3637 178.824 48.3637C179.422 48.3637 179.949 48.2546 180.371 48.0364C180.793 47.8182 181.039 47.491 181.144 47.091C181.25 46.7273 181.144 46.4364 180.828 46.1819C180.512 45.9637 179.844 45.7091 178.824 45.4182C178.086 45.2364 177.524 45.0546 177.067 44.8728C176.645 44.691 176.223 44.4728 175.872 44.1455C175.52 43.8546 175.274 43.491 175.204 43.0182C175.133 42.5819 175.169 42.0364 175.309 41.3819C175.626 40.2182 176.293 39.2728 177.383 38.5455C178.473 37.8182 179.703 37.4546 181.109 37.4546C183.043 37.4546 184.589 38 185.749 39.091L183.64 41.2364C182.586 40.4 181.496 39.9637 180.441 39.9637C179.879 39.9637 179.422 40.0728 179.07 40.291C178.719 40.5091 178.473 40.8 178.403 41.1273C178.297 41.5637 178.403 41.8546 178.719 42.0728C179.035 42.291 179.773 42.5455 180.898 42.8364C182.269 43.2 183.253 43.6728 183.816 44.2546C184.378 44.8364 184.519 45.6728 184.238 46.7637C183.921 48.0364 183.183 49.0182 182.093 49.7091C180.933 50.5819 179.633 50.9091 178.121 50.9091Z" fill="#00833E"/>
<path d="M160.159 59.7454L158.437 66.3999H187.788L179.492 74.9817L184.027 79.6726L203.255 59.7454H160.159Z" fill="#76BC21"/>
</g>
<defs>
<clipPath id="clip0_1274_8681">
<rect width="106.509" height="60" fill="white" transform="translate(96.7456 20)"/>
</clipPath>
</defs>
</svg>
