<svg width="260" height="160" viewBox="0 0 260 160" fill="none" xmlns="http://www.w3.org/2000/svg">
<rect width="260" height="160" rx="20" fill="white"/>
<g clip-path="url(#clip0_1274_6647)">
<path d="M65.2751 57.8909L69.7745 40.5818H77.2267C79.3826 40.5818 80.9293 41.1151 81.8667 42.2303C82.8509 43.3454 83.0852 44.8 82.6166 46.5939C82.101 48.5333 81.023 50.0363 79.3826 51.103C77.7422 52.1697 75.8206 52.703 73.7115 52.703H70.665L69.3059 57.8909H65.2751ZM71.5087 49.3575H74.6958C75.68 49.3575 76.5236 49.1151 77.2267 48.6303C77.9297 48.1454 78.3515 47.5151 78.5859 46.6909C78.8202 45.8666 78.6796 45.1878 78.2109 44.7515C77.7422 44.3151 77.0392 44.0727 76.0081 44.0727H72.9147L71.5087 49.3575Z" fill="#00833E"/>
<path d="M98.4579 55.6122C96.1614 57.3577 93.6305 58.2304 90.8652 58.2304C88.1 58.2304 86.0377 57.3577 84.6317 55.6122C83.2725 53.8668 82.8975 51.7819 83.5537 49.2607C84.2099 46.788 85.6628 44.6547 87.9594 42.9092C90.2559 41.1637 92.7868 40.291 95.5521 40.291C98.3173 40.291 100.38 41.1637 101.786 42.9092C103.145 44.6547 103.52 46.7395 102.864 49.2607C102.207 51.7334 100.755 53.8668 98.4579 55.6122ZM88.2874 53.1395C89.0373 54.2062 90.2091 54.7395 91.8495 54.7395C93.443 54.7395 94.8959 54.2062 96.1614 53.188C97.4737 52.1213 98.3173 50.8607 98.6923 49.3092C99.0672 47.8062 98.8798 46.4971 98.1299 45.4304C97.38 44.3637 96.1614 43.8304 94.5678 43.8304C92.9743 43.8304 91.5214 44.3637 90.2559 45.3819C88.9436 46.4486 88.1 47.7092 87.725 49.2607C87.3032 50.7637 87.4907 52.0728 88.2874 53.1395Z" fill="#00833E"/>
<path d="M103.004 57.8909L107.504 40.5818H111.206L116.971 51.2485L119.737 40.5818H123.673L119.174 57.8909H115.753L109.8 46.8848L106.941 57.8909H103.004Z" fill="#00833E"/>
<path d="M127.985 57.8909L129.766 51.0545L125.501 40.5818H130.188L132.719 47.5151L138.953 40.5818H143.499L133.797 51.006L132.016 57.8909H127.985Z" fill="#00833E"/>
<path d="M59.3228 80.9697L63.8221 63.6606H77.5547L76.6642 67.0546H66.8686L65.9781 70.5455H74.5551L73.6646 73.9394H65.0876L64.1502 77.5758H74.0395L73.149 80.9697H59.3228Z" fill="#00833E"/>
<path d="M74.6018 80.9697L83.2256 72.1455L79.3355 63.6606H84.0224L86.3658 69.2849L91.662 63.6606H96.2083L87.9125 72.097L91.9432 80.9697H87.2564L84.7254 75.0546L79.1012 80.9697H74.6018Z" fill="#00833E"/>
<path d="M94.1931 80.9697L98.6925 63.6606H106.145C108.301 63.6606 109.847 64.194 110.831 65.3091C111.816 66.4243 112.05 67.8788 111.581 69.6728C111.066 71.6122 109.988 73.1152 108.347 74.1819C106.707 75.2485 104.785 75.7819 102.676 75.7819H99.6299L98.2707 80.9697H94.1931ZM100.427 72.3879H103.614C104.598 72.3879 105.442 72.1455 106.145 71.6606C106.848 71.1758 107.269 70.5455 107.504 69.7213C107.738 68.897 107.598 68.2182 107.129 67.7819C106.66 67.3455 105.957 67.1031 104.926 67.1031H101.833L100.427 72.3879Z" fill="#00833E"/>
<path d="M110.784 80.9697L115.284 63.6606H123.58C125.876 63.6606 127.517 64.2425 128.407 65.4061C129.204 66.3758 129.344 67.7334 128.923 69.4303C128.22 72.097 126.485 73.891 123.626 74.8122L126.485 80.9697H121.799L119.268 75.4425H116.174L114.721 80.9697H110.784ZM117.065 72.097H121.142C122.127 72.097 122.923 71.8546 123.58 71.4182C124.236 70.9819 124.658 70.3516 124.845 69.6243C125.033 68.8 124.939 68.2182 124.47 67.7819C124.001 67.3455 123.298 67.1516 122.314 67.1516H118.33L117.065 72.097Z" fill="#00833E"/>
<path d="M128.829 80.9697L133.328 63.6606H147.061L146.17 67.0546H136.422L135.531 70.5455H144.108L143.218 73.9394H134.641L133.703 77.5758H143.592L142.702 80.9697H128.829Z" fill="#00833E"/>
<path d="M151.888 81.2121C148.889 81.2121 146.592 80.2909 144.905 78.4485L147.951 75.7333C149.358 77.1394 150.998 77.8182 152.826 77.8182C153.623 77.8182 154.326 77.6727 154.888 77.3818C155.45 77.0909 155.779 76.6545 155.919 76.1212C156.06 75.6363 155.919 75.2485 155.497 74.9091C155.076 74.6182 154.185 74.2788 152.826 73.8909C151.842 73.6485 151.092 73.406 150.482 73.1636C149.92 72.9212 149.358 72.6303 148.889 72.1939C148.42 71.806 148.092 71.3212 147.998 70.6909C147.905 70.1091 147.951 69.3818 148.139 68.5091C148.561 66.9576 149.451 65.6969 150.904 64.7273C152.357 63.7576 153.998 63.2727 155.872 63.2727C158.45 63.2727 160.512 64 162.059 65.4545L159.247 68.3151C157.841 67.2 156.388 66.6182 154.982 66.6182C154.232 66.6182 153.623 66.7636 153.154 67.0545C152.685 67.3454 152.357 67.7333 152.263 68.1697C152.123 68.7515 152.263 69.1394 152.685 69.4303C153.107 69.7212 154.091 70.0606 155.591 70.4485C157.419 70.9333 158.731 71.5636 159.481 72.3394C160.231 73.1151 160.419 74.2303 160.044 75.6848C159.622 77.3818 158.638 78.6909 157.185 79.6121C155.638 80.7757 153.904 81.2121 151.888 81.2121Z" fill="#00833E"/>
<path d="M167.496 81.2121C164.496 81.2121 162.199 80.2909 160.512 78.4485L163.559 75.7333C164.965 77.1394 166.605 77.8182 168.433 77.8182C169.23 77.8182 169.933 77.6727 170.495 77.3818C171.058 77.0909 171.386 76.6545 171.526 76.1212C171.667 75.6363 171.526 75.2485 171.105 74.9091C170.683 74.6182 169.792 74.2788 168.433 73.8909C167.449 73.6485 166.699 73.406 166.09 73.1636C165.527 72.9212 164.965 72.6303 164.496 72.1939C164.027 71.806 163.699 71.3212 163.606 70.6909C163.512 70.1091 163.559 69.3818 163.746 68.5091C164.168 66.9576 165.058 65.6969 166.511 64.7273C167.964 63.7576 169.605 63.2727 171.479 63.2727C174.057 63.2727 176.119 64 177.666 65.4545L174.854 68.3151C173.448 67.2 171.995 66.6182 170.589 66.6182C169.839 66.6182 169.23 66.7636 168.761 67.0545C168.292 67.3454 167.964 67.7333 167.871 68.1697C167.73 68.7515 167.871 69.1394 168.292 69.4303C168.714 69.7212 169.698 70.0606 171.198 70.4485C173.026 70.9333 174.338 71.5636 175.088 72.3394C175.838 73.1151 176.026 74.2303 175.651 75.6848C175.229 77.3818 174.245 78.6909 172.792 79.6121C171.245 80.7757 169.511 81.2121 167.496 81.2121Z" fill="#00833E"/>
<path d="M143.546 92.9939L141.249 101.867H180.385L169.324 113.309L175.37 119.564L201.007 92.9939H143.546Z" fill="#76BC21"/>
</g>
<defs>
<clipPath id="clip0_1274_6647">
<rect x="58.9946" y="40" width="142.012" height="80" fill="white"/>
</clipPath>
</defs>
</svg>
