<svg width="300" height="160" viewBox="0 0 300 160" fill="none" xmlns="http://www.w3.org/2000/svg">
<rect width="300" height="160" rx="20" fill="white"/>
<g clip-path="url(#clip0_1274_7777)">
<path d="M85.2745 57.8909L89.7739 40.5818H97.2261C99.382 40.5818 100.929 41.1151 101.866 42.2303C102.85 43.3454 103.085 44.8 102.616 46.5939C102.1 48.5333 101.022 50.0363 99.382 51.103C97.7416 52.1697 95.82 52.703 93.7109 52.703H90.6644L89.3052 57.8909H85.2745ZM91.5081 49.3575H94.6951C95.6794 49.3575 96.523 49.1151 97.2261 48.6303C97.9291 48.1454 98.3509 47.5151 98.5852 46.6909C98.8196 45.8666 98.679 45.1878 98.2103 44.7515C97.7416 44.3151 97.0386 44.0727 96.0075 44.0727H92.9141L91.5081 49.3575Z" fill="#00833E"/>
<path d="M118.458 55.6122C116.161 57.3577 113.63 58.2304 110.865 58.2304C108.1 58.2304 106.037 57.3577 104.631 55.6122C103.272 53.8668 102.897 51.7819 103.553 49.2607C104.21 46.788 105.662 44.6547 107.959 42.9092C110.256 41.1637 112.786 40.291 115.552 40.291C118.317 40.291 120.379 41.1637 121.785 42.9092C123.144 44.6547 123.519 46.7395 122.863 49.2607C122.207 51.7334 120.754 53.8668 118.458 55.6122ZM108.287 53.1395C109.037 54.2062 110.209 54.7395 111.849 54.7395C113.443 54.7395 114.896 54.2062 116.161 53.188C117.473 52.1213 118.317 50.8607 118.692 49.3092C119.067 47.8062 118.879 46.4971 118.129 45.4304C117.38 44.3637 116.161 43.8304 114.567 43.8304C112.974 43.8304 111.521 44.3637 110.256 45.3819C108.943 46.4486 108.1 47.7092 107.725 49.2607C107.303 50.7637 107.49 52.0728 108.287 53.1395Z" fill="#00833E"/>
<path d="M123.004 57.8909L127.503 40.5818H131.206L136.971 51.2485L139.736 40.5818H143.673L139.173 57.8909H135.752L129.8 46.8848L126.941 57.8909H123.004Z" fill="#00833E"/>
<path d="M147.985 57.8909L149.766 51.0545L145.501 40.5818H150.188L152.719 47.5151L158.952 40.5818H163.498L153.796 51.006L152.015 57.8909H147.985Z" fill="#00833E"/>
<path d="M79.3223 80.9697L83.8217 63.6606H97.5542L96.6637 67.0546H86.8681L85.9776 70.5455H94.5546L93.6641 73.9394H85.0871L84.1497 77.5758H94.039L93.1485 80.9697H79.3223Z" fill="#00833E"/>
<path d="M94.6014 80.9697L103.225 72.1455L99.3352 63.6606H104.022L106.365 69.2849L111.662 63.6606H116.208L107.912 72.097L111.943 80.9697H107.256L104.725 75.0546L99.1008 80.9697H94.6014Z" fill="#00833E"/>
<path d="M114.193 80.9697L118.692 63.6606H126.144C128.3 63.6606 129.847 64.194 130.831 65.3091C131.815 66.4243 132.049 67.8788 131.581 69.6728C131.065 71.6122 129.987 73.1152 128.347 74.1819C126.706 75.2485 124.785 75.7819 122.676 75.7819H119.629L118.27 80.9697H114.193ZM120.426 72.3879H123.613C124.597 72.3879 125.441 72.1455 126.144 71.6606C126.847 71.1758 127.269 70.5455 127.503 69.7213C127.738 68.897 127.597 68.2182 127.128 67.7819C126.66 67.3455 125.957 67.1031 124.925 67.1031H121.832L120.426 72.3879Z" fill="#00833E"/>
<path d="M130.784 80.9697L135.283 63.6606H143.579C145.876 63.6606 147.516 64.2425 148.407 65.4061C149.203 66.3758 149.344 67.7334 148.922 69.4303C148.219 72.097 146.485 73.891 143.626 74.8122L146.485 80.9697H141.798L139.267 75.4425H136.174L134.721 80.9697H130.784ZM137.064 72.097H141.142C142.126 72.097 142.923 71.8546 143.579 71.4182C144.235 70.9819 144.657 70.3516 144.845 69.6243C145.032 68.8 144.938 68.2182 144.47 67.7819C144.001 67.3455 143.298 67.1516 142.314 67.1516H138.33L137.064 72.097Z" fill="#00833E"/>
<path d="M148.828 80.9697L153.328 63.6606H167.06L166.17 67.0546H156.421L155.531 70.5455H164.108L163.217 73.9394H154.64L153.703 77.5758H163.592L162.702 80.9697H148.828Z" fill="#00833E"/>
<path d="M171.888 81.2121C168.888 81.2121 166.592 80.2909 164.904 78.4485L167.951 75.7333C169.357 77.1394 170.997 77.8182 172.825 77.8182C173.622 77.8182 174.325 77.6727 174.887 77.3818C175.45 77.0909 175.778 76.6545 175.919 76.1212C176.059 75.6363 175.919 75.2485 175.497 74.9091C175.075 74.6182 174.184 74.2788 172.825 73.8909C171.841 73.6485 171.091 73.406 170.482 73.1636C169.919 72.9212 169.357 72.6303 168.888 72.1939C168.42 71.806 168.091 71.3212 167.998 70.6909C167.904 70.1091 167.951 69.3818 168.138 68.5091C168.56 66.9576 169.451 65.6969 170.904 64.7273C172.357 63.7576 173.997 63.2727 175.872 63.2727C178.449 63.2727 180.512 64 182.058 65.4545L179.246 68.3151C177.84 67.2 176.387 66.6182 174.981 66.6182C174.231 66.6182 173.622 66.7636 173.153 67.0545C172.685 67.3454 172.357 67.7333 172.263 68.1697C172.122 68.7515 172.263 69.1394 172.685 69.4303C173.106 69.7212 174.091 70.0606 175.59 70.4485C177.418 70.9333 178.731 71.5636 179.481 72.3394C180.23 73.1151 180.418 74.2303 180.043 75.6848C179.621 77.3818 178.637 78.6909 177.184 79.6121C175.637 80.7757 173.903 81.2121 171.888 81.2121Z" fill="#00833E"/>
<path d="M187.495 81.2121C184.496 81.2121 182.199 80.2909 180.512 78.4485L183.558 75.7333C184.964 77.1394 186.605 77.8182 188.433 77.8182C189.229 77.8182 189.932 77.6727 190.495 77.3818C191.057 77.0909 191.385 76.6545 191.526 76.1212C191.666 75.6363 191.526 75.2485 191.104 74.9091C190.682 74.6182 189.792 74.2788 188.433 73.8909C187.448 73.6485 186.698 73.406 186.089 73.1636C185.527 72.9212 184.964 72.6303 184.496 72.1939C184.027 71.806 183.699 71.3212 183.605 70.6909C183.511 70.1091 183.558 69.3818 183.746 68.5091C184.167 66.9576 185.058 65.6969 186.511 64.7273C187.964 63.7576 189.604 63.2727 191.479 63.2727C194.057 63.2727 196.119 64 197.666 65.4545L194.854 68.3151C193.447 67.2 191.995 66.6182 190.588 66.6182C189.839 66.6182 189.229 66.7636 188.761 67.0545C188.292 67.3454 187.964 67.7333 187.87 68.1697C187.729 68.7515 187.87 69.1394 188.292 69.4303C188.714 69.7212 189.698 70.0606 191.198 70.4485C193.026 70.9333 194.338 71.5636 195.088 72.3394C195.838 73.1151 196.025 74.2303 195.65 75.6848C195.228 77.3818 194.244 78.6909 192.791 79.6121C191.245 80.7757 189.511 81.2121 187.495 81.2121Z" fill="#00833E"/>
<path d="M163.545 92.9939L161.249 101.867H200.384L189.323 113.309L195.369 119.564L221.006 92.9939H163.545Z" fill="#76BC21"/>
</g>
<defs>
<clipPath id="clip0_1274_7777">
<rect width="142.012" height="80" fill="white" transform="translate(78.9941 40)"/>
</clipPath>
</defs>
</svg>
