<svg width="300" height="100" viewBox="0 0 300 100" fill="none" xmlns="http://www.w3.org/2000/svg">
<rect width="300" height="100" rx="10" fill="white"/>
<path fill-rule="evenodd" clip-rule="evenodd" d="M114.79 57.2955H110.367C103.468 57.2955 108.481 42.137 114.289 42.137H121.276C122.397 42.137 124.372 42.3506 125.345 39.4835L126.849 35.0305H117.267C112.078 35.0305 108.038 36.9215 105.119 40.0935C100.078 45.5225 98.3677 54.0015 99.5765 58.058C100.726 61.8095 103.852 64.28 108.746 64.3411L112.549 64.3715H117.237L118.387 60.803C119.242 58.2716 117.326 57.2955 114.79 57.2955ZM168.627 51.0125L170.071 46.163H154.651C152.086 46.163 150.937 46.895 150.494 48.42L149.05 53.2695H164.469C167.034 53.2695 168.184 52.5375 168.627 51.0125ZM146.75 59.5526L145.305 64.402H160.725C163.261 64.402 164.44 63.67 164.882 62.1451L166.327 57.2955H150.907C148.371 57.2955 147.222 58.0275 146.75 59.5526ZM172.223 39.9105L173.668 35.061H158.248C155.683 35.061 154.533 35.793 154.091 37.318L152.647 42.1675H168.066C170.602 42.1675 171.752 41.4355 172.223 39.9105ZM148.932 40.8865C148.283 36.3725 145.954 35.061 140.293 35.061H129.974L123.959 53.2695H127.763C130.033 53.2695 131.183 53.3 132.392 49.945L134.898 42.137H138.73C142.003 42.137 141.266 46.3766 139.615 50.494C138.141 54.1235 135.576 57.326 132.48 57.326H126.082C123.517 57.326 122.338 58.058 121.866 59.5831L120.274 64.4325H124.962L129.561 64.402C133.63 64.3715 136.961 64.0665 140.853 60.437C144.981 56.5635 149.757 46.6205 148.932 40.8865ZM200.764 35.0305H191.83L183.427 44.272C182.454 45.3395 181.452 46.407 180.479 47.6576H180.39L184.577 35.0305H177.295L167.477 64.402H174.759L177.884 55.1606L181.127 52.324L183.693 60.6811C184.488 63.2735 185.314 64.402 187.083 64.402H192.656L186.936 47.993L200.764 35.0305Z" fill="#00B33C"/>
</svg>
