<svg width="300" height="160" viewBox="0 0 300 160" fill="none" xmlns="http://www.w3.org/2000/svg">
<rect width="300" height="160" rx="20" fill="white"/>
<path fill-rule="evenodd" clip-rule="evenodd" d="M103.053 89.7275H97.1559C87.9571 89.7275 94.64 69.5161 102.384 69.5161H111.701C113.195 69.5161 115.829 69.8008 117.126 65.9781L119.131 60.0408H106.355C99.436 60.0408 94.0503 62.5621 90.1585 66.7914C83.4363 74.0301 81.1563 85.3355 82.7681 90.7441C84.3012 95.7461 88.4682 99.0401 94.9938 99.1215L100.065 99.1621H106.315L107.849 94.4041C108.989 91.0288 106.433 89.7275 103.053 89.7275ZM174.835 81.3501L176.761 74.8841H156.201C152.781 74.8841 151.248 75.8601 150.658 77.8934L148.732 84.3595H169.292C172.712 84.3595 174.245 83.3835 174.835 81.3501ZM145.666 92.7368L143.74 99.2028H164.299C167.68 99.2028 169.253 98.2268 169.842 96.1935L171.769 89.7275H151.209C147.828 89.7275 146.295 90.7035 145.666 92.7368ZM179.631 66.5474L181.557 60.0814H160.997C157.577 60.0814 156.044 61.0574 155.454 63.0908L153.528 69.5568H174.088C177.469 69.5568 179.002 68.5808 179.631 66.5474ZM148.575 67.8488C147.71 61.8301 144.604 60.0814 137.057 60.0814H123.298L115.278 84.3595H120.349C123.376 84.3595 124.91 84.4001 126.521 79.9268L129.863 69.5161H134.973C139.337 69.5161 138.354 75.1688 136.153 80.6588C134.187 85.4981 130.767 89.7681 126.639 89.7681H118.109C114.689 89.7681 113.116 90.7441 112.487 92.7775L110.364 99.2435H116.615L122.747 99.2028C128.172 99.1621 132.615 98.7555 137.804 93.9161C143.307 88.7515 149.676 75.4941 148.575 67.8488ZM217.684 60.0408H205.773L194.569 72.3628C193.271 73.7861 191.935 75.2094 190.637 76.8768H190.519L196.102 60.0408H186.393L173.302 99.2028H183.012L187.178 86.8808L191.502 83.0988L194.923 94.2415C195.984 97.6981 197.085 99.2028 199.444 99.2028H206.874L199.247 77.3241L217.684 60.0408Z" fill="#00B33C"/>
</svg>
