<svg width="260" height="160" viewBox="0 0 260 160" fill="none" xmlns="http://www.w3.org/2000/svg">
<rect width="260" height="160" rx="20" fill="white"/>
<path fill-rule="evenodd" clip-rule="evenodd" d="M83.0526 89.7275H77.1559C67.9571 89.7275 74.64 69.5161 82.3843 69.5161H91.7011C93.1948 69.5161 95.8287 69.8008 97.126 65.9781L99.1308 60.0408H86.3547C79.436 60.0408 74.0503 62.5621 70.1585 66.7914C63.4363 74.0301 61.1563 85.3355 62.7681 90.7441C64.3012 95.7461 68.4682 99.0401 74.9938 99.1215L80.065 99.1621H86.3154L87.8486 94.4041C88.9886 91.0288 86.4334 89.7275 83.0526 89.7275ZM154.835 81.3501L156.761 74.8841H136.201C132.781 74.8841 131.248 75.8601 130.658 77.8934L128.732 84.3595H149.292C152.712 84.3595 154.245 83.3835 154.835 81.3501ZM125.666 92.7368L123.74 99.2028H144.299C147.68 99.2028 149.253 98.2268 149.842 96.1935L151.769 89.7275H131.209C127.828 89.7275 126.295 90.7035 125.666 92.7368ZM159.631 66.5474L161.557 60.0814H140.997C137.577 60.0814 136.044 61.0574 135.454 63.0908L133.528 69.5568H154.088C157.469 69.5568 159.002 68.5808 159.631 66.5474ZM128.575 67.8488C127.71 61.8301 124.604 60.0814 117.057 60.0814H103.298L95.2784 84.3595H100.349C103.376 84.3595 104.91 84.4001 106.521 79.9268L109.863 69.5161H114.973C119.337 69.5161 118.354 75.1688 116.153 80.6588C114.187 85.4981 110.767 89.7681 106.639 89.7681H98.1088C94.6887 89.7681 93.1163 90.7441 92.4872 92.7775L90.3644 99.2435H96.615L102.747 99.2028C108.172 99.1621 112.615 98.7555 117.804 93.9161C123.307 88.7515 129.676 75.4941 128.575 67.8488ZM197.684 60.0408H185.773L174.569 72.3628C173.271 73.7861 171.935 75.2094 170.637 76.8768H170.519L176.102 60.0408H166.393L153.302 99.2028H163.012L167.178 86.8808L171.502 83.0988L174.923 94.2415C175.984 97.6981 177.085 99.2028 179.444 99.2028H186.874L179.247 77.3241L197.684 60.0408Z" fill="#00B33C"/>
</svg>
